<svg width="74" height="70" viewBox="0 0 74 70" fill="none" xmlns="http://www.w3.org/2000/svg">
<g clip-path="url(#clip0)">
<path d="M44.8442 64.5612H29.1558L30.6095 45.4211H43.3904L44.8442 64.5612Z" fill="#0050C3"/>
<path d="M44.8442 64.5612H37V45.4211H43.3904L44.8442 64.5612Z" fill="#1B3B6B"/>
<path d="M52.1295 64.1317C52.1295 65.2672 51.1561 66.1863 49.9575 66.1863H24.0424C22.8438 66.1863 21.8705 65.2672 21.8705 64.1317C21.8705 62.9979 22.8438 62.0778 24.0424 62.0778H49.9575C51.1561 62.0778 52.1295 62.9979 52.1295 64.1317Z" fill="#06CCAB"/>
<path d="M52.1295 64.1317C52.1295 65.2672 51.1562 66.1863 49.9576 66.1863H37V62.0778H49.9576C51.1562 62.0778 52.1295 62.9979 52.1295 64.1317Z" fill="#1CADB5"/>
<path d="M74 8.5305V43.8477C74 46.3696 71.8394 48.4134 69.1734 48.4134H4.82655C2.16063 48.4134 0 46.3696 0 43.8477V8.5305C0 6.00868 2.16063 3.96484 4.82655 3.96484H69.1734C71.8394 3.96484 74 6.00868 74 8.5305Z" fill="#CDEBFC"/>
<path d="M74 8.5305V43.8477C74 46.3696 71.8394 48.4134 69.1734 48.4134H37V3.96484H69.1734C71.8394 3.96484 74 6.00868 74 8.5305Z" fill="#A3D4FF"/>
<path d="M27.6608 16.4062C26.7423 15.6767 25.3726 15.7899 24.6014 16.6594L16.6268 25.646C15.9493 26.4097 15.9493 27.5237 16.6268 28.2874L24.6014 37.2745C25.3732 38.144 26.7428 38.2567 27.6608 37.5271C28.58 36.7976 28.6991 35.502 27.9284 34.6331L21.1253 26.9667L27.9284 19.3008C28.6991 18.4314 28.58 17.1358 27.6608 16.4062Z" fill="#06CCAB"/>
<path d="M57.3733 25.646L49.3981 16.6588C48.6274 15.7899 47.2578 15.6767 46.3386 16.4062C45.4201 17.1358 45.3004 18.4314 46.0716 19.3003L52.8742 26.9667L46.0716 34.6331C45.3004 35.502 45.4201 36.7976 46.3386 37.5271C47.2578 38.2567 48.628 38.1429 49.3981 37.2745L57.3733 28.2874C58.0507 27.5237 58.0507 26.4097 57.3733 25.646Z" fill="#1CADB5"/>
<path d="M42.7841 18.7369L37 32.5455L35.2555 36.7106C34.8123 37.7648 33.5499 38.2812 32.4354 37.8636C31.3204 37.446 30.7745 36.2518 31.2165 35.1971L37 21.3885L38.7446 17.2233C39.1878 16.1675 40.4484 15.6511 41.5646 16.0703C42.6796 16.4879 43.2256 17.6821 42.7841 18.7369Z" fill="#06CCAB"/>
<path d="M42.7841 18.7369L37 32.5454V21.3885L38.7445 17.2233C39.1877 16.1675 40.4484 15.6511 41.5646 16.0703C42.6796 16.4879 43.2256 17.6821 42.7841 18.7369Z" fill="#1CADB5"/>
</g>
<defs>
<clipPath id="clip0">
<rect width="74" height="70" fill="white"/>
</clipPath>
</defs>
</svg>