<svg height="512pt" viewBox="0 0 512 512" width="512pt" xmlns="http://www.w3.org/2000/svg"><path d="m256 512c-68.378906 0-132.667969-26.628906-181.019531-74.980469-48.351563-48.351562-74.980469-112.640625-74.980469-181.019531s26.628906-132.667969 74.980469-181.019531c48.351562-48.351563 112.640625-74.980469 181.019531-74.980469s132.667969 26.628906 181.019531 74.980469c48.351563 48.351562 74.980469 112.640625 74.980469 181.019531s-26.628906 132.667969-74.980469 181.019531c-48.351562 48.351563-112.640625 74.980469-181.019531 74.980469zm0 0" fill="#55506e"/><path d="m437.019531 74.980469c-48.351562-48.351563-112.640625-74.980469-181.019531-74.980469v512c68.378906 0 132.667969-26.628906 181.019531-74.980469 48.351563-48.351562 74.980469-112.640625 74.980469-181.019531s-26.628906-132.667969-74.980469-181.019531zm0 0" fill="#47435c"/><path d="m256 30c-60.367188 0-117.121094 23.507812-159.804688 66.195312-42.6875 42.683594-66.195312 99.4375-66.195312 159.804688s23.507812 117.121094 66.195312 159.804688c42.683594 42.6875 99.4375 66.195312 159.804688 66.195312s117.121094-23.507812 159.804688-66.195312c42.6875-42.683594 66.195312-99.4375 66.195312-159.804688s-23.507812-117.121094-66.195312-159.804688c-42.683594-42.6875-99.4375-66.195312-159.804688-66.195312zm0 0" fill="#0093ff"/><path d="m415.804688 415.804688c42.6875-42.683594 66.195312-99.4375 66.195312-159.804688s-23.507812-117.121094-66.195312-159.804688c-42.683594-42.6875-99.4375-66.195312-159.804688-66.195312v452c60.367188 0 117.121094-23.507812 159.804688-66.195312zm0 0" fill="#007def"/><g fill="#d7f0f5"><path d="m256 400.980469c-11.523438 0-23.046875-4.386719-31.820312-13.160157-17.542969-17.546874-17.542969-46.09375 0-63.640624 17.546874-17.542969 46.09375-17.542969 63.640624 0 17.546876 17.546874 17.546876 46.09375 0 63.640624-8.773437 8.773438-20.296874 13.160157-31.820312 13.160157zm0-59.972657c-3.839844 0-7.683594 1.460938-10.605469 4.386719-2.832031 2.832031-4.394531 6.597657-4.394531 10.605469 0 4.003906 1.5625 7.773438 4.394531 10.605469 5.847657 5.847656 15.363281 5.847656 21.210938 0 2.835937-2.832031 4.394531-6.597657 4.394531-10.605469s-1.558594-7.773438-4.394531-10.605469c-2.921875-2.925781-6.765625-4.386719-10.605469-4.386719zm0 0"/><path d="m319.640625 307.359375c-3.839844 0-7.679687-1.464844-10.605469-4.394531-29.242187-29.242188-76.824218-29.242188-106.066406 0-5.859375 5.859375-15.355469 5.859375-21.214844 0-5.855468-5.855469-5.855468-15.355469 0-21.210938 40.941406-40.941406 107.554688-40.941406 148.492188 0 5.859375 5.855469 5.859375 15.355469 0 21.210938-2.929688 2.929687-6.765625 4.394531-10.605469 4.394531zm0 0"/><path d="m362.066406 264.933594c-3.839844 0-7.679687-1.464844-10.605468-4.394532-52.636719-52.636718-138.285157-52.636718-190.921876 0-5.855468 5.859376-15.355468 5.859376-21.210937 0-5.859375-5.855468-5.859375-15.355468 0-21.210937 64.332031-64.335937 169.011719-64.335937 233.34375 0 5.859375 5.855469 5.859375 15.355469 0 21.210937-2.929687 2.929688-6.765625 4.394532-10.605469 4.394532zm0 0"/><path d="m404.492188 222.507812c-3.839844 0-7.679688-1.464843-10.605469-4.394531-36.832031-36.828125-85.800781-57.113281-137.886719-57.113281s-101.054688 20.285156-137.886719 57.113281c-5.855469 5.859375-15.355469 5.859375-21.210937 0-5.859375-5.855469-5.859375-15.355469 0-21.210937 42.496094-42.5 98.996094-65.902344 159.097656-65.902344s116.601562 23.402344 159.097656 65.902344c5.859375 5.855468 5.859375 15.355468 0 21.210937-2.925781 2.929688-6.765625 4.394531-10.605468 4.394531zm0 0"/></g><path d="m287.820312 324.179688c-8.773437-8.773438-20.296874-13.160157-31.820312-13.160157v29.988281c3.839844 0 7.683594 1.460938 10.605469 4.386719 2.832031 2.832031 4.394531 6.597657 4.394531 10.605469s-1.5625 7.773438-4.394531 10.605469c-2.921875 2.925781-6.765625 4.386719-10.605469 4.386719v29.984374c11.523438 0 23.046875-4.382812 31.820312-13.15625 17.542969-17.546874 17.542969-46.09375 0-63.640624zm0 0" fill="#c3e1eb"/><path d="m319.640625 307.359375c3.839844 0 7.675781-1.464844 10.605469-4.394531 5.859375-5.855469 5.859375-15.355469 0-21.210938-20.46875-20.472656-47.359375-30.707031-74.246094-30.707031v29.988281c19.207031 0 38.410156 7.308594 53.03125 21.929688 2.929688 2.929687 6.769531 4.394531 10.609375 4.394531zm0 0" fill="#c3e1eb"/><path d="m362.066406 264.933594c3.839844 0 7.675782-1.464844 10.605469-4.394532 5.859375-5.855468 5.859375-15.355468 0-21.210937-32.167969-32.167969-74.417969-48.25-116.671875-48.25v29.984375c34.570312 0 69.140625 13.160156 95.460938 39.476562 2.929687 2.929688 6.765624 4.394532 10.605468 4.394532zm0 0" fill="#c3e1eb"/><path d="m404.492188 222.507812c3.839843 0 7.679687-1.464843 10.605468-4.394531 5.859375-5.855469 5.859375-15.355469 0-21.210937-42.496094-42.5-98.996094-65.902344-159.097656-65.902344v30c52.085938 0 101.054688 20.285156 137.886719 57.113281 2.925781 2.929688 6.765625 4.394531 10.605469 4.394531zm0 0" fill="#c3e1eb"/></svg>